<svg id="圖層_1" data-name="圖層 1" xmlns="http://www.w3.org/2000/svg" viewBox="0 0 200 21"><defs><style>.cls-1{fill:#129043;}.cls-2{fill:#b3b3b3;}.cls-3{fill:#4f080d;}.cls-4{fill:#1b94d3;}.cls-5{fill:#d61518;}.cls-6{fill:#221714;}.cls-7{fill:#fff;}</style></defs><rect class="cls-1" x="19.6" y="1.05" width="3.01" height="19.16"/><rect class="cls-2" x="13.73" y="1.05" width="3.01" height="19.16"/><rect class="cls-3" x="7.87" y="1.05" width="3.01" height="19.16"/><rect class="cls-4" x="-5.15" y="9.12" width="19.16" height="3.01" transform="translate(-6.88 12.8) rotate(-78.22)"/><rect class="cls-5" x="25.47" y="1.05" width="3.01" height="19.16"/><polygon class="cls-6" points="109.26 20.29 107.33 18.89 102.95 15.71 98.58 18.89 96.65 20.29 97.39 18.02 99.08 12.88 94.76 9.76 92.84 8.36 95.22 8.36 100.53 8.36 102.22 3.21 102.95 0.97 103.69 3.21 105.42 8.36 110.69 8.36 113.07 8.36 111.14 9.76 106.83 12.88 108.51 18.02 109.26 20.29 109.26 20.29"/><polygon class="cls-7" points="99.99 12.59 98.13 18.26 102.95 14.76 107.78 18.26 105.92 12.59 110.69 9.13 104.81 9.13 102.95 3.45 101.09 9.13 95.22 9.13 99.99 12.59 99.99 12.59"/><path class="cls-6" d="M64.64,16.14a4.47,4.47,0,0,1-4.46,4.45h-.77a4.31,4.31,0,0,1-3.15-1.31A4.27,4.27,0,0,1,55,16.14v-11A4.29,4.29,0,0,1,56.26,2,4.3,4.3,0,0,1,59.41.67h.77A4.29,4.29,0,0,1,63.33,2a4.3,4.3,0,0,1,1.31,3.15Zm-3-.8V5.82a4.35,4.35,0,0,0-.24-1.68,1.42,1.42,0,0,0-1.4-.8c-1.4,0-2.1.83-2.1,2.48v9.52c0,1.66.64,2.49,1.93,2.49S61.67,17,61.67,15.34Z"/><path class="cls-6" d="M78,16.14a4.47,4.47,0,0,1-4.45,4.45H72.8a4.47,4.47,0,0,1-4.45-4.45v-11A4.3,4.3,0,0,1,69.66,2,4.28,4.28,0,0,1,72.8.67h.78A4.28,4.28,0,0,1,76.72,2,4.3,4.3,0,0,1,78,5.12Zm-3-.8V5.82a4.35,4.35,0,0,0-.24-1.68,1.41,1.41,0,0,0-1.39-.8c-1.41,0-2.11.83-2.11,2.48v9.52c0,1.66.64,2.49,1.93,2.49S75.06,17,75.06,15.34Z"/><path class="cls-6" d="M91.86,20.26h-3.4l-3.8-5.64v5.64H81.58V1h3.08V6.58L88.43,1H91.8l-6.75,9.57Z"/><path class="cls-6" d="M132.79,1l-3.41,19.3-3.18,0L124.39,9.68l-1.87,10.6-3.18,0L116.05,1h3.09L121,14,122.85,1H126L127.8,14,129.7,1Z"/><path class="cls-6" d="M144.63,20.28h-3.07L141,16.49h-2.49l-.64,3.79h-3.07L138.16,1l3.17,0Zm-4.15-6.87-.75-5.3-.74,5.3Z"/><path class="cls-6" d="M157.67,17.5v2.76h-9V1h3.09V17.5Z"/><path class="cls-6" d="M171,20.26h-3.4l-3.8-5.64v5.64h-3.09V1h3.09V6.58L167.6,1H171l-6.75,9.57Z"/><path class="cls-6" d="M183.08,17.51v2.77h-9V1l9,0V3.74h-5.91v5.2h3.46V11.7h-3.46v5.81Z"/><path class="cls-6" d="M51.24,16.16a4.28,4.28,0,0,1-1,3,3.63,3.63,0,0,1-2.85,1.16H40.77V1l6,0a4.26,4.26,0,0,1,3.15,1.31,4.29,4.29,0,0,1,1.3,3.15V7.22A3.89,3.89,0,0,1,50.77,9a2.6,2.6,0,0,1-1.16,1.3,2.72,2.72,0,0,1,1.16,1.19,3.53,3.53,0,0,1,.47,1.67Zm-3-9.73V6.09a3.62,3.62,0,0,0-.35-1.94,2.48,2.48,0,0,0-2-.6h-2.2V9L46,9a2.27,2.27,0,0,0,1.86-.62A3.3,3.3,0,0,0,48.27,6.43Zm0,9.55V13.59c0-1.46-.34-2.19-1-2.19H43.74v6.43l2.71,0A1.6,1.6,0,0,0,48,17.11,1.55,1.55,0,0,0,48.27,16Z"/><rect class="cls-6" x="38.46" y="0.94" width="6.2" height="2.45"/><path class="cls-6" d="M199.09,7.3a4.36,4.36,0,0,1-1,3,3.67,3.67,0,0,1-2.87,1.14h-3.34v9h-3.09V.83l5.87,0a4.29,4.29,0,0,1,3.14,1.31,4.3,4.3,0,0,1,1.31,3.15Zm-3-.8V5.94A3.62,3.62,0,0,0,195.77,4a2.42,2.42,0,0,0-2-.59h-2V9l2.45,0a1.58,1.58,0,0,0,1.51-.74A3.79,3.79,0,0,0,196.12,6.5Z"/><polyline class="cls-6" points="195.15 9.3 198.37 20.37 195.59 20.37 192.8 10.55"/><rect class="cls-6" x="185.74" y="0.8" width="6.2" height="2.45"/></svg>