<svg id="圖層_1" data-name="圖層 1" xmlns="http://www.w3.org/2000/svg" viewBox="0 0 50 50"><defs><style>.cls-1{fill:#ff574d;}.cls-2{fill:#fff;}</style></defs><circle class="cls-1" cx="25" cy="25.09" r="24.5"/><path class="cls-2" d="M40.65,19.56a3,3,0,0,1-1.82.27A14.21,14.21,0,0,0,14.59,16l-.37.47,0,0h0a3.49,3.49,0,0,1,1-.62l.08,0a2.31,2.31,0,0,1,1.27-.12c2,.41,3.08,3.67,2.36,7.3s-3,6.24-5,5.83c-1.42-.28-2.36-2-2.55-4.21h0v.07a5.42,5.42,0,0,0,0,.57v.18l0,.63,0,.28,0,.3a14.18,14.18,0,0,0,1.33,4.55.43.43,0,0,1-.11.51l-.39.32a1.27,1.27,0,0,0-.46,1.15.87.87,0,0,0,.05.22v0a1.76,1.76,0,0,0,.09.2l.07,0,.32-.25a.37.37,0,0,1,.45.59l-.35.26-.05,0,1.66,2a1.28,1.28,0,0,0,1.8.18l.36-.29a.41.41,0,0,1,.53,0,14.21,14.21,0,0,0,17,.46.42.42,0,0,1,.54,0l.23.22a1.27,1.27,0,0,0,1.58.14l.08-.06h0l-.29-.28a.37.37,0,1,1,.5-.54l.32.3,1.77-1.87a1.28,1.28,0,0,0,0-1.81l-.37-.35a.42.42,0,0,1-.08-.51,14.12,14.12,0,0,0,1.72-8.13c0-.43-.09-.85-.17-1.26a6.88,6.88,0,0,0,1.51-1.82C41.43,20,41.51,19.24,40.65,19.56Z"/><path class="cls-2" d="M11.92,23.88c.15,1.73.87,3.05,2,3.27,1.57.31,3.29-1.71,3.85-4.51S17.5,17.31,15.93,17a2.21,2.21,0,0,0-1.83.61A6.18,6.18,0,0,0,12.49,20h0c-.2-.06-.3-.18-.44-.21a1.73,1.73,0,1,0-2.83-.43,1.72,1.72,0,0,0-.93.31,1.74,1.74,0,1,0,2,2.84,1.67,1.67,0,0,0,.55-.66A3.14,3.14,0,0,0,11.9,23,7.73,7.73,0,0,0,11.92,23.88Zm1.85-4.8a1.42,1.42,0,0,1,1.2-.4c1,.2,1.55,1.85,1.18,3.68s-1.49,3.14-2.51,2.93c-.69-.13-1.16-.94-1.27-2a2.67,2.67,0,0,0,.79.18,1.73,1.73,0,0,0,1.6-.73c.49-.65.12-2.47-.52-2.7s-.8,0-1.25.07A3.46,3.46,0,0,1,13.77,19.08Z"/></svg>