<svg id="圖層_1" data-name="圖層 1" xmlns="http://www.w3.org/2000/svg" viewBox="0 0 50 50"><defs><style>.cls-1{fill:#1da1f2;}.cls-2{fill:#fff;}</style></defs><circle class="cls-1" cx="25" cy="25.09" r="24.5"/><path class="cls-2" d="M40.46,17.08l-.1.05-1,.39a12,12,0,0,1-2.06.45.07.07,0,0,1-.07,0h0a6.13,6.13,0,0,0,1.54-1.38,5,5,0,0,0,1-1.84l-.05,0A11.86,11.86,0,0,1,36,16.12a.14.14,0,0,1-.17-.05,4.18,4.18,0,0,0-.44-.4,5.87,5.87,0,0,0-5-1.3,5.73,5.73,0,0,0-3.25,1.83A5.86,5.86,0,0,0,25.62,20a6.13,6.13,0,0,0,.15,1.58,17,17,0,0,1-12.3-6.23,6,6,0,0,0,1.84,8,6.12,6.12,0,0,1-2.69-.74,5.87,5.87,0,0,0,1.32,3.81,6,6,0,0,0,3.46,2.11,6.48,6.48,0,0,1-1.35.2,7.48,7.48,0,0,1-1.33-.08,6,6,0,0,0,5.55,4.14,12.09,12.09,0,0,1-8.77,2.46s.07.06.11.09a16.92,16.92,0,0,0,3.76,1.75,16.74,16.74,0,0,0,4,.78,17.91,17.91,0,0,0,2.43,0,17.74,17.74,0,0,0,3.08-.45,15.9,15.9,0,0,0,7.44-4.09,17.7,17.7,0,0,0,5.21-10.88,12.75,12.75,0,0,0,0-2.14.21.21,0,0,1,.1-.21,11.94,11.94,0,0,0,2.77-2.86S40.47,17.14,40.46,17.08Z"/></svg>