<svg id="圖層_1" data-name="圖層 1" xmlns="http://www.w3.org/2000/svg" viewBox="0 0 50 50"><defs><style>.cls-1{fill:#ce0076;}.cls-2{fill:#fff;}</style></defs><circle class="cls-1" cx="25" cy="25.09" r="24.5"/><path class="cls-2" d="M25,13.37c3.82,0,4.27,0,5.78.08a8.22,8.22,0,0,1,2.65.49A4.52,4.52,0,0,1,35.08,15a4.3,4.3,0,0,1,1.06,1.65,7.88,7.88,0,0,1,.5,2.65c.07,1.51.08,2,.08,5.78s0,4.27-.08,5.78a7.88,7.88,0,0,1-.5,2.65,4.26,4.26,0,0,1-1.06,1.64,4.52,4.52,0,0,1-1.65,1.07,7.88,7.88,0,0,1-2.65.5c-1.51.06-2,.08-5.78.08s-4.27,0-5.78-.08a7.88,7.88,0,0,1-2.65-.5,4.52,4.52,0,0,1-1.65-1.07,4.26,4.26,0,0,1-1.06-1.64,7.88,7.88,0,0,1-.5-2.65c-.07-1.51-.08-2-.08-5.78s0-4.27.08-5.78a7.88,7.88,0,0,1,.5-2.65A4.3,4.3,0,0,1,14.92,15a4.52,4.52,0,0,1,1.65-1.07,8.22,8.22,0,0,1,2.65-.49c1.51-.07,2-.08,5.78-.08m0-2.58c-3.88,0-4.37,0-5.89.09a10.51,10.51,0,0,0-3.47.66,7.31,7.31,0,0,0-4.19,4.18,10.62,10.62,0,0,0-.66,3.47c-.07,1.53-.09,2-.09,5.9s0,4.37.09,5.89a10.62,10.62,0,0,0,.66,3.47A7.09,7.09,0,0,0,13.1,37a7,7,0,0,0,2.54,1.65,10.23,10.23,0,0,0,3.47.67c1.52.07,2,.08,5.89.08s4.37,0,5.89-.08a10.23,10.23,0,0,0,3.47-.67A7,7,0,0,0,36.9,37a7.09,7.09,0,0,0,1.65-2.53A10.62,10.62,0,0,0,39.21,31c.07-1.52.09-2,.09-5.89s0-4.37-.09-5.9a10.62,10.62,0,0,0-.66-3.47,7.31,7.31,0,0,0-4.19-4.18,10.51,10.51,0,0,0-3.47-.66c-1.52-.07-2-.09-5.89-.09Z"/><path class="cls-2" d="M25,17.75a7.34,7.34,0,1,0,7.34,7.34A7.34,7.34,0,0,0,25,17.75Zm0,12.1a4.77,4.77,0,1,1,4.77-4.76A4.77,4.77,0,0,1,25,29.85Z"/><path class="cls-2" d="M34.35,17.46a1.72,1.72,0,1,1-1.72-1.72A1.72,1.72,0,0,1,34.35,17.46Z"/></svg>