<svg id="圖層_1" data-name="圖層 1" xmlns="http://www.w3.org/2000/svg" viewBox="0 0 50 50"><defs><style>.cls-1{fill:#00b900;}.cls-2{fill:#fff;}</style></defs><g id="FULL_COLOR_ICON" data-name="FULL COLOR ICON"><rect class="cls-1" x="0.5" y="0.59" width="49" height="49" rx="24"/><g id="TYPE_A" data-name="TYPE A"><path class="cls-2" d="M40.32,23.9c0-6.85-6.87-12.43-15.32-12.43S9.68,17.05,9.68,23.9c0,6.15,5.45,11.3,12.81,12.27.5.11,1.18.33,1.35.76a3.06,3.06,0,0,1,.05,1.38l-.22,1.31c-.06.39-.31,1.52,1.33.83s8.82-5.2,12-8.9h0a11,11,0,0,0,3.28-7.65"/><path class="cls-1" d="M21.89,20.59H20.81a.3.3,0,0,0-.3.3v6.67a.3.3,0,0,0,.3.3h1.08a.3.3,0,0,0,.3-.3V20.89a.3.3,0,0,0-.3-.3"/><path class="cls-1" d="M29.28,20.59H28.21a.29.29,0,0,0-.3.3v4l-3.06-4.13,0,0h0l0,0h0v0H23.53a.29.29,0,0,0-.3.3v6.67a.29.29,0,0,0,.3.3H24.6a.29.29,0,0,0,.3-.3v-4L28,27.74a.23.23,0,0,0,.07.07h1.24a.29.29,0,0,0,.3-.3V20.89a.29.29,0,0,0-.3-.3"/><path class="cls-1" d="M19.3,26.19H16.38v-5.3a.3.3,0,0,0-.3-.3H15a.3.3,0,0,0-.3.3v6.67h0a.31.31,0,0,0,.09.21h0a.28.28,0,0,0,.2.08h4.3a.29.29,0,0,0,.29-.3V26.49a.29.29,0,0,0-.29-.3"/><path class="cls-1" d="M35.22,22.26a.3.3,0,0,0,.3-.3V20.89a.3.3,0,0,0-.3-.3H30.93a.3.3,0,0,0-.21.08h0a.32.32,0,0,0-.08.21h0v6.67h0a.3.3,0,0,0,.08.21h0a.3.3,0,0,0,.21.08h4.29a.3.3,0,0,0,.3-.3V26.49a.3.3,0,0,0-.3-.3H32.3V25.06h2.92a.3.3,0,0,0,.3-.3V23.69a.3.3,0,0,0-.3-.3H32.3V22.26Z"/></g></g></svg>