<svg id="圖層_1" data-name="圖層 1" xmlns="http://www.w3.org/2000/svg" viewBox="0 0 50 50"><defs><style>.cls-1{fill:#1877f2;}.cls-2{fill:#fff;}</style></defs><path class="cls-1" d="M49.5,25.09a24.5,24.5,0,1,0-28.33,24.2V32.17H15V25.09h6.22v-5.4c0-6.14,3.65-9.53,9.25-9.53a37.7,37.7,0,0,1,5.49.48v6H32.82c-3.05,0-4,1.89-4,3.82v4.6h6.8l-1.09,7.08H28.82V49.29A24.5,24.5,0,0,0,49.5,25.09Z"/><path class="cls-2" d="M34.53,32.17l1.09-7.08h-6.8v-4.6c0-1.93.95-3.82,4-3.82h3.09v-6a37.7,37.7,0,0,0-5.49-.48c-5.6,0-9.25,3.39-9.25,9.53v5.4H15v7.08h6.22V49.29a24.53,24.53,0,0,0,7.65,0V32.17Z"/></svg>