<svg id="圖層_1" data-name="圖層 1" xmlns="http://www.w3.org/2000/svg" viewBox="0 0 50 50"><defs><style>.cls-1{fill:#1877f2;}.cls-2{fill:#fff;}.cls-3{fill:#fdfdff;}.cls-4{fill:#fbfcfd;}.cls-5{fill:#f9fbfd;}</style></defs><path class="cls-1" d="M49.5,24.91A24.5,24.5,0,1,1,24.82.59,24.58,24.58,0,0,1,49.5,24.91Z"/><path class="cls-2" d="M24.82,36.4c-1.57,0-3.13,0-4.7,0-5.11-.11-7-3.28-4.54-7.75,2-3.58,5.22-4.54,9.12-4.55s7.54.66,9.67,4.44C36.89,33,35,36.27,30,36.39,28.27,36.43,26.55,36.4,24.82,36.4Z"/><path class="cls-3" d="M30,15.81c-.23,3.1-1.75,5.46-5.13,5.39S20,18.73,20,15.48s1.64-5.46,5.1-5.4S30,12.39,30,15.81Z"/><path class="cls-4" d="M14.22,23.19c-2.42,0-3.62-2.09-3.6-4.41s1.19-4,3.66-3.94S17.76,16.68,17.7,19,16.63,23.19,14.22,23.19Z"/><path class="cls-4" d="M35.75,23.16c-2.32,0-3.48-2.06-3.45-4.38s1.19-4,3.65-3.94,3.5,1.84,3.42,4.17S38.06,23.16,35.75,23.16Z"/><path class="cls-5" d="M36.53,25.26c1.82-.94,5.53,1.8,6.24,4.91.49,2.07-.41,3.82-2.61,4.18-2.66.43-1.93-1.81-2-3.16C37.88,26.81,35.49,25.89,36.53,25.26Z"/><path class="cls-5" d="M13.68,25.26c-1.82-.94-5.53,1.8-6.24,4.91C7,32.24,7.85,34,10.05,34.35c2.66.43,1.93-1.81,2-3.16C12.33,26.81,14.72,25.89,13.68,25.26Z"/><path class="cls-1" d="M22.05,38.86A10.6,10.6,0,1,1,11.37,28.37,10.62,10.62,0,0,1,22.05,38.86Z"/><path class="cls-2" d="M20.07,39a8.62,8.62,0,1,0-10,8.52v-6H7.92V39H10.1v-1.9a3,3,0,0,1,3.26-3.35,13.2,13.2,0,0,1,1.93.17V36H14.2a1.24,1.24,0,0,0-1.4,1.34V39h2.39l-.38,2.49h-2v6A8.63,8.63,0,0,0,20.07,39Z"/></svg>